<svg id="Layer_1" data-name="Layer 1" xmlns="http://www.w3.org/2000/svg" viewBox="0 0 781.88 399.77"><title>Artboard 29</title><polygon points="273.17 117.25 162.17 395.87 111.06 395.87 148.09 301.61 132.59 262.08 75.87 117.25 127.55 117.25 172.22 240.27 220.56 117.25 273.17 117.25"/><path d="M450.92,283.27q-29.22,29-71.33,29t-71.15-29q-29-29-29-71.15t29-71.14q29-29,71.15-29t71.33,29q29.22,29,29.22,71.14T450.92,283.27ZM343,249.68q14.61,14.81,36.62,14.8t36.8-14.8q14.81-14.79,14.8-37.56t-14.8-37.56q-14.79-14.81-36.8-14.8T343,174.56q-14.61,14.79-14.61,37.56T343,249.68Z"/><path d="M617.52,112q31.11,0,51.42,20.87t20.3,57.67V307h-49V196.56q0-19-10.25-29t-27.31-10.06q-19,0-30.36,11.77T561,204.53V307H512V127.21l49-14.47v25.77Q578.81,112,617.52,112Z"/><polygon points="48.95 306.98 0 306.98 0 21.57 48.95 5.3 48.95 306.98"/><polygon points="781.88 306.98 732.93 306.98 732.93 21.57 781.88 5.3 781.88 306.98"/></svg>